<svg xmlns="http://www.w3.org/2000/svg" viewBox="1761.631 2908 23.756 23.756">
  <defs>
    <style>
      .cls-1 {
        fill: #fff;
      }
    </style>
  </defs>
  <g id="logo" transform="translate(1761.631 2908)">
    <g id="Group_22" data-name="Group 22" transform="translate(0 0)">
      <path id="Path_9" data-name="Path 9" class="cls-1" d="M20.184,8.307A11.878,11.878,0,1,0,32.062,20.184,11.892,11.892,0,0,0,20.184,8.307Zm6.172,18.029a.484.484,0,0,1-.382.106H23.844c-.323,0-.449-.126-.449-.452V22.1a3.552,3.552,0,0,0-.1-1.01.8.8,0,0,0-.85-.641,1.117,1.117,0,0,0-.889.3,1.267,1.267,0,0,0-.3.735,7.673,7.673,0,0,0-.054.872q-.009,1.826,0,3.651h0a.438.438,0,0,1-.113.325.43.43,0,0,1-.317.112H20.76q-1.09-.006-2.182,0a.435.435,0,0,1-.323-.112.448.448,0,0,1-.116-.325q0-3.846,0-7.692c0-.013,0-.032,0-.056a.416.416,0,0,1,.113-.267.439.439,0,0,1,.327-.113q1.042.007,2.085,0a.4.4,0,0,1,.439.447c0,.045,0,.09,0,.135a2.863,2.863,0,0,1,1.262-.665,3.743,3.743,0,0,1,2.436.2,2.519,2.519,0,0,1,1.429,1.762,5.613,5.613,0,0,1,.21,1.49q.012,1.722.017,3.443l.005,1.268A.483.483,0,0,1,26.356,26.335ZM19.9,10.555a.265.265,0,0,1-.251.278,9.495,9.495,0,0,0-1.188.136.253.253,0,0,1-.047,0,.265.265,0,0,1-.046-.526,10.134,10.134,0,0,1,1.254-.143A.275.275,0,0,1,19.9,10.555ZM13.378,12.92a10.831,10.831,0,0,1,3.965-2.238.265.265,0,0,1,.144.51,10.283,10.283,0,0,0-3.763,2.13.265.265,0,0,1-.346-.4Zm3.775,9.249v.894q0,1.468,0,2.937a.448.448,0,0,1-.115.331.439.439,0,0,1-.323.113h-.006q-1.083-.009-2.166,0a.386.386,0,0,1-.331-.114A.447.447,0,0,1,14.1,26q.006-3.839,0-7.677a.6.6,0,0,1,.019-.16.46.46,0,0,1,.046-.08.318.318,0,0,1,.051-.089h0l.005,0a.4.4,0,0,1,.325-.11h0q1.081.007,2.165,0a.421.421,0,0,1,.328.112.452.452,0,0,1,.115.333c0,.971,0,1.943,0,2.915Zm-1.522-4.794h-.017a1.679,1.679,0,0,1-1.189-.494,1.745,1.745,0,0,1-.517-1.232h0a1.711,1.711,0,0,1,1.717-1.724h.01a1.7,1.7,0,0,1,1.724,1.722A1.7,1.7,0,0,1,15.631,17.375Z" transform="translate(-8.306 -8.307)"/>
    </g>
  </g>
</svg>
