<svg xmlns="http://www.w3.org/2000/svg" viewBox="1730.6 2908 23.756 23.756">
  <defs>
    <style>
      .cls-1 {
        fill: #fff;
      }
    </style>
  </defs>
  <g id="logo_1_" data-name="logo (1)" transform="translate(1730.6 2908)">
    <g id="Group_23" data-name="Group 23" transform="translate(0 0)">
      <path id="Path_10" data-name="Path 10" class="cls-1" d="M20.184,8.307A11.878,11.878,0,1,0,32.062,20.184,11.892,11.892,0,0,0,20.184,8.307ZM19.3,23.16h4.2a1.675,1.675,0,1,1,0,3.35H19.3A4.113,4.113,0,0,1,15.194,22.4V15.533a1.676,1.676,0,0,1,3.351,0V16.94H23.5a1.675,1.675,0,1,1,0,3.35H18.545V22.4A.759.759,0,0,0,19.3,23.16Zm.778-12.507a.265.265,0,0,1-.251.278,9.494,9.494,0,0,0-1.188.136.254.254,0,0,1-.047,0,.265.265,0,0,1-.046-.526A10.134,10.134,0,0,1,19.8,10.4.272.272,0,0,1,20.08,10.653Zm-6.521,2.228a10.458,10.458,0,0,1,3.965-2.1.265.265,0,0,1,.144.51,9.919,9.919,0,0,0-3.763,1.993.265.265,0,0,1-.346-.4Z" transform="translate(-8.306 -8.307)"/>
    </g>
  </g>
</svg>
