<?xml version="1.0" encoding="iso-8859-1"?>
<!-- Generator: Adobe Illustrator 19.0.0, SVG Export Plug-In . SVG Version: 6.00 Build 0)  -->
<svg version="1.1" id="Capa_1" xmlns="http://www.w3.org/2000/svg" xmlns:xlink="http://www.w3.org/1999/xlink" x="0px" y="0px"
	 viewBox="0 0 512 512" style="enable-background:new 0 0 512 512;" xml:space="preserve">
<path style="fill:#BF7300;" d="M384.939,401.03c0-18.163-14.776-32.939-32.939-32.939h-29.76
	c-4.782-16.72-17.355-30.181-33.52-36.201c5.595-7.094,8.947-16.036,8.947-25.751c0-9.512-3.211-18.285-8.597-25.306
	c8.596-8.522,13.93-20.329,13.93-33.36v-79h-94v79c0,13.032,5.334,24.839,13.93,33.36c-5.386,7.021-8.597,15.794-8.597,25.306
	c0,9.715,3.351,18.657,8.947,25.751c-16.164,6.02-28.737,19.481-33.52,36.201H160c-18.163,0-32.94,14.776-32.94,32.939
	c0,12.762,7.3,23.844,17.94,29.311v9.131h30V398.09h42.666v-15c0-13.11,10.302-23.857,23.235-24.577l-0.309,80.902l30,0.114
	l0.31-81.027c13.026,0.622,23.431,11.412,23.431,24.588v15H337v41.381h30v-9.131C377.639,424.873,384.939,413.792,384.939,401.03z"
	/>
<path style="fill:#855000;" d="M352,368.09h-29.76c-4.782-16.72-17.355-30.181-33.52-36.201c5.595-7.094,8.947-16.036,8.947-25.751
	c0-9.512-3.211-18.285-8.597-25.306c8.596-8.522,13.93-20.329,13.93-33.36v-79h-47v271.002l14.592,0.056l0.31-81.027
	c13.026,0.622,23.431,11.412,23.431,24.588v15H337v41.381h30v-9.131c10.639-5.467,17.939-16.549,17.939-29.311
	C384.939,382.866,370.163,368.09,352,368.09z"/>
<rect x="27.667" y="115.14" style="fill:#804D00;" width="456.67" height="83.33"/>
<rect x="256" y="115.14" style="fill:#402600;" width="228.33" height="83.33"/>
<polygon style="fill:#FF9900;" points="193.985,115.238 159,115.238 209,198.571 243.985,198.571 "/>
<g>
	<polygon style="fill:#BF7300;" points="318.015,115.238 353,115.238 303,198.571 268.015,198.571 	"/>
	<rect y="72.47" style="fill:#BF7300;" width="512" height="73.39"/>
</g>
<rect x="256" y="72.47" style="fill:#855000;" width="256" height="73.39"/>
<g>
</g>
<g>
</g>
<g>
</g>
<g>
</g>
<g>
</g>
<g>
</g>
<g>
</g>
<g>
</g>
<g>
</g>
<g>
</g>
<g>
</g>
<g>
</g>
<g>
</g>
<g>
</g>
<g>
</g>
</svg>
